<?xml version="1.0" encoding="iso-8859-1"?>
<!-- Generator: Adobe Illustrator 19.0.0, SVG Export Plug-In . SVG Version: 6.00 Build 0)  -->
<svg version="1.1" id="Capa_1" xmlns="http://www.w3.org/2000/svg" xmlns:xlink="http://www.w3.org/1999/xlink" x="0px" y="0px"
	 viewBox="0 0 512 512" style="enable-background:new 0 0 512 512;" xml:space="preserve">
<path style="fill:#B1EAD4;" d="M386,170h40c5.523,0,10,4.477,10,10v332h-60V180C376,174.477,380.477,170,386,170z"/>
<path style="fill:#A2DAC2;" d="M436,180v325h-20V180c0-5.523-4.477-10-10-10h20c3.452,0,6.495,1.749,8.292,4.409
	c0.719,1.064,1.238,2.274,1.505,3.576C435.93,178.636,436,179.31,436,180z"/>
<path style="fill:#7CC3AC;" d="M286,230h40c5.523,0,10,4.477,10,10v272h-60V240C276,234.477,280.477,230,286,230z"/>
<path style="fill:#61AE9F;" d="M336,240v263.5h-20V240c0-5.523-4.477-10-10-10h20c3.452,0,6.495,1.749,8.292,4.409
	c0.719,1.064,1.238,2.274,1.505,3.576C335.93,238.636,336,239.31,336,240z"/>
<path style="fill:#4A7273;" d="M186,280h40c5.523,0,10,4.477,10,10v222h-60V290C176,284.477,180.477,280,186,280z"/>
<g>
	<path style="fill:#43545C;" d="M236,290v218.333h-20V290c0-5.523-4.477-10-10-10h20c3.452,0,6.495,1.749,8.292,4.409
		c0.719,1.064,1.238,2.274,1.505,3.576C235.93,288.636,236,289.31,236,290z"/>
	<path style="fill:#43545C;" d="M86,310h40c5.523,0,10,4.477,10,10v192H76V320C76,314.477,80.477,310,86,310z"/>
</g>
<path style="fill:#323D48;" d="M136,320v186.333h-20V320c0-5.523-4.477-10-10-10h20c3.452,0,6.495,1.749,8.292,4.409
	c0.719,1.064,1.238,2.274,1.505,3.576C135.93,318.636,136,319.31,136,320z"/>
<path style="fill:#61AE9F;" d="M30.417,217.501c0-4.142,3.357-7.5,7.5-7.5h83.006c136.25,0,260.343-72.334,327.579-189.812
	l-14.701,4.594c-3.959,1.237-8.161-0.969-9.396-4.922c-1.236-3.954,0.968-8.16,4.921-9.396l32.396-10.123
	c3.962-1.233,8.161,0.969,9.396,4.922l10.123,32.396c1.236,3.954-0.968,8.16-4.921,9.396c-0.745,0.232-1.499,0.343-2.239,0.343
	c-3.194,0-6.154-2.056-7.156-5.265l-4.84-15.489c-32.978,57.928-80.183,106.57-137.295,141.274
	c-61.457,37.343-131.953,57.082-203.866,57.082H37.917C33.774,225.001,30.417,221.643,30.417,217.501z M504.5,497H7.5
	c-4.143,0-7.5,3.358-7.5,7.5s3.357,7.5,7.5,7.5h497c4.143,0,7.5-3.358,7.5-7.5S508.643,497,504.5,497z"/>
<g>
</g>
<g>
</g>
<g>
</g>
<g>
</g>
<g>
</g>
<g>
</g>
<g>
</g>
<g>
</g>
<g>
</g>
<g>
</g>
<g>
</g>
<g>
</g>
<g>
</g>
<g>
</g>
<g>
</g>
</svg>
