<?xml version="1.0" encoding="iso-8859-1"?>
<!-- Generator: Adobe Illustrator 19.0.0, SVG Export Plug-In . SVG Version: 6.00 Build 0)  -->
<svg version="1.1" id="Layer_1" xmlns="http://www.w3.org/2000/svg" xmlns:xlink="http://www.w3.org/1999/xlink" x="0px" y="0px"
	 viewBox="0 0 512 512" style="enable-background:new 0 0 512 512;" xml:space="preserve">
<g>
	<path style="fill:#ECF0F1;" d="M379.923,512H149.726c-14.433,0-26.138-11.705-26.138-26.147V26.147
		C123.588,11.705,135.293,0,149.726,0h230.197c14.442,0,26.147,11.705,26.147,26.147v459.705
		C406.071,500.295,394.365,512,379.923,512"/>
	<polygon style="fill:#38454F;" points="123.584,441.379 406.067,441.379 406.067,52.966 123.584,52.966 	"/>
	<g>
		<path style="fill:#546A79;" d="M300.136,35.31h-44.138c-4.882,0-8.828-3.946-8.828-8.828s3.946-8.828,8.828-8.828h44.138
			c4.882,0,8.828,3.946,8.828,8.828S305.018,35.31,300.136,35.31"/>
		<path style="fill:#546A79;" d="M229.515,35.31h-8.828c-4.882,0-8.828-3.946-8.828-8.828s3.946-8.828,8.828-8.828h8.828
			c4.882,0,8.828,3.946,8.828,8.828S234.397,35.31,229.515,35.31"/>
	</g>
	<g>
		<path style="fill:#BDC3C7;" d="M114.757,97.103c-4.882,0-8.828-3.946-8.828-8.828v-8.828c0-4.882,3.946-8.828,8.828-8.828
			s8.828,3.946,8.828,8.828v8.828C123.584,93.158,119.639,97.103,114.757,97.103"/>
		<path style="fill:#BDC3C7;" d="M114.757,132.414c-4.882,0-8.828-3.946-8.828-8.828v-8.828c0-4.882,3.946-8.828,8.828-8.828
			s8.828,3.946,8.828,8.828v8.828C123.584,128.468,119.639,132.414,114.757,132.414"/>
		<path style="fill:#BDC3C7;" d="M114.757,167.724c-4.882,0-8.828-3.946-8.828-8.828v-8.828c0-4.882,3.946-8.828,8.828-8.828
			s8.828,3.946,8.828,8.828v8.828C123.584,163.778,119.639,167.724,114.757,167.724"/>
		<path style="fill:#BDC3C7;" d="M291.309,476.69c0,14.627-11.855,26.483-26.483,26.483c-14.627,0-26.483-11.855-26.483-26.483
			c0-14.627,11.855-26.483,26.483-26.483C279.453,450.207,291.309,462.062,291.309,476.69"/>
	</g>
	<g>
		<path style="fill:#F0C419;" d="M255.998,300.138c27.348,27.348,61.113,47.687,88.461,20.33l8.625-8.625
			c4.149-4.149,5.111-10.514,2.366-15.704c-6.453-12.2-30.252-26.147-30.252-26.147c-5.385-3.063-11.882-3.407-14.954,2.066
			c0,0-7.733,9.269-9.702,10.602c-8.986,6.091-18.485,8.783-26.889,0.38L255.998,300.138z"/>
		<path style="fill:#F0C419;" d="M229.515,238.345c-8.404-8.404-2.366-14.001,3.716-22.987c1.333-1.969,10.611-9.702,10.611-9.702
			c5.473-3.072,5.129-9.569,2.057-14.954c0,0-13.948-23.799-26.138-30.252c-5.191-2.745-11.564-1.783-15.713,2.366l-8.625,8.625
			c-27.348,27.348-11.185,57.212,16.163,84.559L229.515,238.345z"/>
	</g>
	<path style="fill:#C03A2B;" d="M194.205,326.621c-2.26,0-4.52-0.865-6.241-2.586c-3.452-3.452-3.452-9.031,0-12.482
		l105.931-105.931c3.452-3.452,9.031-3.452,12.482,0c3.452,3.452,3.452,9.031,0,12.482L200.446,324.034
		C198.725,325.756,196.465,326.621,194.205,326.621"/>
</g>
<g>
</g>
<g>
</g>
<g>
</g>
<g>
</g>
<g>
</g>
<g>
</g>
<g>
</g>
<g>
</g>
<g>
</g>
<g>
</g>
<g>
</g>
<g>
</g>
<g>
</g>
<g>
</g>
<g>
</g>
</svg>
